/* XPM */
static char * D:\proiecte\elemental quest\res\icon_xpm[] = {
"32 32 225 2",
"  	c #0B28FF",
". 	c #0926FF",
"+ 	c #0220FF",
"@ 	c #001DFF",
"# 	c #001EFF",
"$ 	c #0624FF",
"% 	c #021FFF",
"& 	c #011EFF",
"* 	c #0824FF",
"= 	c #001FFD",
"- 	c #0020FC",
"; 	c #0021FC",
"> 	c #001CFF",
", 	c #001BFF",
"' 	c #001AFF",
") 	c #0021FD",
"! 	c #0026F7",
"~ 	c #0029F4",
"{ 	c #0129F4",
"] 	c #001FFE",
"^ 	c #0022FA",
"/ 	c #0024F8",
"( 	c #0027F5",
"_ 	c #0028F3",
": 	c #0028F4",
"< 	c #0026F6",
"[ 	c #0024F7",
"} 	c #0022F9",
"| 	c #0025F6",
"1 	c #002EEE",
"2 	c #0036E5",
"3 	c #003DDC",
"4 	c #0042D7",
"5 	c #0143D7",
"6 	c #001EFE",
"7 	c #0125F8",
"8 	c #012AF2",
"9 	c #0130EB",
"0 	c #0138E3",
"a 	c #0140D9",
"b 	c #0145D4",
"c 	c #0045D4",
"d 	c #0043D6",
"e 	c #003FD9",
"f 	c #003BDD",
"g 	c #0036E3",
"h 	c #003DDB",
"i 	c #0050C7",
"j 	c #005DB8",
"k 	c #0066AE",
"l 	c #006CA8",
"m 	c #006EA5",
"n 	c #006EA4",
"o 	c #0024F9",
"p 	c #0029F2",
"q 	c #0031EA",
"r 	c #003ADF",
"s 	c #0146D2",
"t 	c #0151C6",
"u 	c #015DB9",
"v 	c #0169AC",
"w 	c #01759E",
"x 	c #017B97",
"y 	c #007B96",
"z 	c #007998",
"A 	c #00749D",
"B 	c #006FA2",
"C 	c #0069AA",
"D 	c #0070A3",
"E 	c #00828E",
"F 	c #008E80",
"G 	c #009678",
"H 	c #009B72",
"I 	c #009D6F",
"J 	c #009E6E",
"K 	c #0025F7",
"L 	c #0030EB",
"M 	c #0041D8",
"N 	c #0056C0",
"O 	c #006CA7",
"P 	c #00828D",
"Q 	c #009677",
"R 	c #01A863",
"S 	c #01B752",
"T 	c #00C444",
"U 	c #00CA3C",
"V 	c #00CB3B",
"W 	c #00C93D",
"X 	c #00C541",
"Y 	c #00C147",
"Z 	c #00BB4D",
"` 	c #00BC4C",
" .	c #00C443",
"..	c #00CC3A",
"+.	c #00CE37",
"@.	c #00D135",
"#.	c #00D233",
"$.	c #002FEC",
"%.	c #003EDB",
"&.	c #0053C3",
"*.	c #008987",
"=.	c #00A369",
"-.	c #00B94F",
";.	c #01DB29",
">.	c #01E71B",
",.	c #00F110",
"'.	c #00F60B",
").	c #00F60A",
"!.	c #00F50B",
"~.	c #00F30E",
"{.	c #00EF12",
"].	c #00EC17",
"^.	c #00EB18",
"/.	c #00EC15",
"(.	c #00ED14",
"_.	c #00EF13",
":.	c #00F011",
"<.	c #0036E4",
"[.	c #014EC9",
"}.	c #016BA9",
"|.	c #018C83",
"1.	c #01AB5F",
"2.	c #01C93D",
"3.	c #01DE26",
"4.	c #00EA18",
"5.	c #00F20F",
"6.	c #00F70A",
"7.	c #00FA06",
"8.	c #00FC03",
"9.	c #00FD02",
"0.	c #00FE02",
"a.	c #00FD03",
"b.	c #00FC04",
"c.	c #00FB05",
"d.	c #00FB04",
"e.	c #0022FB",
"f.	c #0027F4",
"g.	c #0033E7",
"h.	c #0044D3",
"i.	c #017B96",
"j.	c #019B72",
"k.	c #01BC4C",
"l.	c #01D82C",
"m.	c #01EF12",
"n.	c #01FD02",
"o.	c #00FF00",
"p.	c #002DED",
"q.	c #0040D8",
"r.	c #005ABB",
"s.	c #007A97",
"t.	c #019975",
"u.	c #02B654",
"v.	c #02CF38",
"w.	c #01E41F",
"x.	c #01F30E",
"y.	c #0021FB",
"z.	c #004CCB",
"A.	c #0069A9",
"B.	c #008986",
"C.	c #01AC5F",
"D.	c #02C83F",
"E.	c #02DE27",
"F.	c #02EF14",
"G.	c #01FA06",
"H.	c #01FF00",
"I.	c #002EEC",
"J.	c #003CDD",
"K.	c #005BBA",
"L.	c #007D94",
"M.	c #01C246",
"N.	c #02DA2B",
"O.	c #02EB18",
"P.	c #02F40D",
"Q.	c #01FB06",
"R.	c #00FE01",
"S.	c #0047D0",
"T.	c #00848D",
"U.	c #01AA62",
"V.	c #01CE39",
"W.	c #01E71D",
"X.	c #02F50C",
"Y.	c #02FD03",
"Z.	c #00838E",
"`.	c #01AF5C",
" +	c #02D235",
".+	c #02EA1A",
"++	c #02F809",
"@+	c #01FD03",
"#+	c #00947A",
"$+	c #01A765",
"%+	c #02D037",
"&+	c #02EC18",
"*+	c #02FA07",
"=+	c #01B950",
"-+	c #02C740",
";+	c #03E71E",
">+	c #02F909",
",+	c #01FE02",
"'+	c #02D333",
")+	c #03DD28",
"!+	c #03F40F",
"~+	c #02FF02",
"{+	c #03E124",
"]+	c #03E81C",
"^+	c #03F70B",
"/+	c #01FF01",
"(+	c #04E71F",
"_+	c #03ED18",
":+	c #03F90A",
"<+	c #05E325",
"[+	c #05EA1D",
"}+	c #04F90C",
"|+	c #03FF02",
"1+	c #08DC2F",
"2+	c #07E525",
"3+	c #06F80F",
"4+	c #04FF02",
"5+	c #0DD33E",
"6+	c #0BDE30",
"7+	c #08F612",
"8+	c #05FF03",
"9+	c #03FF03",
"0+	c #0FCF45",
"a+	c #0DDB35",
"b+	c #09F514",
"  . + @ # # # # # # @ @ # # # # # # # # # # # # # # # # # # # # ",
". $ % @ # # # # # & % % & # # # # # # # # # # # # # # # # # # # ",
"+ % # # # # # # # + * * + # # # # # # # # # # # # # # # # # # # ",
"@ @ # # # # # # # + * * + # # # # # # # # # # # # # # # # # # # ",
"# # # # # # # # # & + + & # # # # # # # # # # # # # # # # # # # ",
"# # # # # # # # # # # # # # # # # # # # # # # # # # # # # # # # ",
"# # # # # # # # # # # # # # # # # # # # # # # # # # # # # # # # ",
"# # # # # # # # # # # # # # # # # # # # # # # # # # # # # # # # ",
"# # # # # # # # # # # # # # # # # # # # # # # # # # # @ @ @ @ @ ",
"# # # # # # # # # # # # # # # @ @ @ @ @ @ @ @ @ @ @ @ # = - ; ; ",
"# # # # # # # # # # # # # @ @ > > , , , , , ' ' ' , @ ) ! ~ { { ",
"# # # # # # # # # # # # # # ] - ^ / ( _ : ( < [ } | 1 2 3 4 5 5 ",
"# # # # # # 6 6 # # # # # - 7 8 9 0 a b c d e f g h i j k l m n ",
"# # # # # # # # 6 - o p q r s t u v w x y z A B C D E F G H I J ",
"# # # # ] # # # ] K L M N O P Q R S T U V W X Y Z `  .W ..+.@.#.",
"# # # # # ] ) ! $.%.&.O *.=.-...;.>.,.'.).!.~.{.].^./.(.(._.:.,.",
"# # @ > > = ( <.[.}.|.1.2.3.4.5.6.7.8.9.0.9.a.b.c.c.c.d.d.d.b.b.",
"@ # 6 e.f.g.h.j i.j.k.l.m.n.o.o.o.o.o.o.o.o.o.o.o.o.o.o.o.o.o.o.",
"> # ^ p.q.r.s.t.u.v.w.x.c.o.o.o.o.o.o.o.o.o.o.o.o.o.o.o.o.o.o.o.",
"y.: g z.A.B.C.D.E.F.G.H.o.o.o.o.o.o.o.o.o.o.o.o.o.o.o.o.o.o.o.o.",
"I.J.K.L.=.M.N.O.P.Q.R.o.o.o.o.o.o.o.o.o.o.o.o.o.o.o.o.o.o.o.o.o.",
"S.r.T.U.V.W.X.Y.H.o.o.o.o.o.o.o.o.o.o.o.o.o.o.o.o.o.o.o.o.o.o.o.",
"n Z.`. +.+++@+o.o.o.o.o.o.o.o.o.o.o.o.o.o.o.o.o.o.o.o.o.o.o.o.o.",
"#+$+%+&+*+H.o.o.o.o.o.o.o.o.o.o.o.o.o.o.o.o.o.o.o.o.o.o.o.o.o.o.",
"=+-+;+>+,+o.o.o.o.o.o.o.o.o.o.o.o.o.o.o.o.o.o.o.o.o.o.o.o.o.o.o.",
"'+)+!+~+H.o.o.o.o.o.o.o.o.o.o.o.o.o.o.o.o.o.o.o.o.o.o.o.o.o.o.o.",
"{+]+^+~+H.o.o.o.o.o.o.o.o.o.o.o.o.o./+/+o.o.o.o.o.o.o.o.o.o.o.o.",
"(+_+:+~+H.o.o.o.o.o.o.o.o.o.o.o.o.o./+/+o.o.o.o.o.o.o.o.o.o.o.o.",
"<+[+}+|+H.o.o.o.o.o.o.o.o.o.o.o.o.o.o.o.o.o.o.o.o.o.o.o.o.o.o.o.",
"1+2+3+4+H.o.o.o.o.o.o.o.o.o.o.o.o.o.o.o.o.o.o.o.o.o.o.o.o.o./+/+",
"5+6+7+8+H.o.o.o.o.o.o.o.o.o.o.o.o.o.o.o.o.o.o.o.o.o.o.o./+/+~+9+",
"0+a+b+8+H.o.o.o.o.o.o.o.o.o.o.o.o.o.o.o.o.o.o.o.o.o.o.o./+~+9+9+"};
